<?xml version="1.0" encoding="UTF-8" standalone="no"?><!DOCTYPE svg PUBLIC "-//W3C//DTD SVG 1.1//EN" "http://www.w3.org/Graphics/SVG/1.1/DTD/svg11.dtd"><svg width="100%" height="100%" viewBox="0 0 401 50" version="1.1" xmlns="http://www.w3.org/2000/svg" xmlns:xlink="http://www.w3.org/1999/xlink" xml:space="preserve" xmlns:serif="http://www.serif.com/" style="fill-rule:evenodd;clip-rule:evenodd;stroke-linejoin:round;stroke-miterlimit:1.41421;"><g id="Layer-1" serif:id="Layer 1"><path d="M7.68,30.96c-2.96,0 -4.98,-0.499 -6.06,-1.5c-1.08,-0.999 -1.62,-2.94 -1.62,-5.819l0,-6.421l7.2,-1.38l0,9.301l14.22,0l0,-25.141l7.2,0l0,23.641c0,2.879 -0.54,4.82 -1.62,5.819c-1.08,1.001 -3.1,1.5 -6.06,1.5l-13.26,0Z" style="fill:#fff;fill-rule:nonzero;"/><path d="M43.2,30.96l-0.001,-30.96l31.681,0l-0.001,5.279l-24.48,0l0.001,6.901l14.279,0l0,5.28l-14.279,0l-0.001,7.681l24.78,0l0,5.819l-31.98,0Z" style="fill:#fff;fill-rule:nonzero;"/><path d="M88.499,30.96l0,-30.96l31.32,0l0,5.4l-24.12,0l0,8.161l13.02,0l0,5.639l-13.02,0l0,11.76l-7.2,0Z" style="fill:#fff;fill-rule:nonzero;"/><path d="M128.758,30.96l0,-30.96l31.32,0l0,5.4l-24.12,0l0,8.161l13.02,0l0,5.639l-13.02,0l0,11.76l-7.2,0Z" style="fill:#fff;fill-rule:nonzero;"/><path d="M169.017,30.96l0,-30.96l31.68,0l0,5.279l-24.48,0l0,6.901l14.28,0l0,5.28l-14.28,0l0,7.681l24.78,0l0,5.819l-31.98,0Z" style="fill:#fff;fill-rule:nonzero;"/><path d="M237.597,5.28l-16.2,0l0,8.701l16.2,0c1.119,0 1.899,-0.121 2.34,-0.363c0.599,-0.361 0.9,-1.067 0.9,-2.114l0,-3.746c0,-1.046 -0.301,-1.751 -0.9,-2.115c-0.441,-0.242 -1.221,-0.363 -2.34,-0.363m-23.28,25.681l0,-30.96l26.52,0c4.639,0 6.959,2 6.959,6l0,7.259c0,4 -2.32,6 -6.959,6l-4.08,0l14.279,11.701l-10.32,0l-12.479,-11.701l-6.84,0l0,11.701l-7.08,0Z" style="fill:#fff;fill-rule:nonzero;"/><path d="M289.256,5.401l-20.341,0l0,6.66l19.363,0c2.967,0 5.001,0.5 6.104,1.5c1.103,1 1.654,2.94 1.654,5.819l0,4.261c0,2.879 -0.551,4.821 -1.65,5.82c-1.101,1.001 -3.131,1.5 -6.09,1.5l-19.141,0c-2.961,0 -4.99,-0.499 -6.089,-1.5c-1.101,-0.999 -1.651,-2.941 -1.651,-5.82l0,-0.841l6.361,-1.319l0,3.66l21.9,0l0,-7.08l-19.32,0c-2.96,0 -4.98,-0.5 -6.06,-1.5c-1.08,-1 -1.62,-2.94 -1.62,-5.82l0,-3.42c0,-2.881 0.54,-4.82 1.62,-5.82c1.08,-1 3.1,-1.5 6.06,-1.5l17.58,0c2.84,0 4.83,0.48 5.969,1.439c1.141,0.961 1.711,2.74 1.711,5.34l0,0.66l-6.36,1.5l0,-3.539Z" style="fill:#fff;fill-rule:nonzero;"/><path d="M317.515,25.141l23.76,0l0,-19.621l-23.76,0l0,19.621Zm-7.2,-17.82c0,-2.881 0.54,-4.821 1.619,-5.821c1.08,-1 3.1,-1.5 6.061,-1.5l22.801,0c2.959,0 4.979,0.5 6.059,1.5c1.079,1 1.62,2.94 1.62,5.821l0,16.32c0,2.879 -0.541,4.82 -1.62,5.819c-1.08,1.001 -3.1,1.5 -6.059,1.5l-22.801,0c-2.961,0 -4.981,-0.499 -6.061,-1.5c-1.079,-0.999 -1.619,-2.94 -1.619,-5.819l0,-16.32Z" style="fill:#fff;fill-rule:nonzero;"/><path d="M363.595,30.96l0,-30.96l4.92,0l21.779,18.24c1.561,1.321 2.74,2.44 3.54,3.36c-0.2,-2.88 -0.3,-4.66 -0.3,-5.34l0,-16.26l6.481,0l0,30.96l-4.92,0l-22.74,-19.14c-0.96,-0.799 -1.821,-1.64 -2.58,-2.52c0.199,2.001 0.299,3.64 0.299,4.92l0,16.74l-6.479,0Z" style="fill:#fff;fill-rule:nonzero;"/><path d="M215.837,47.584l2.272,0c0.61,0 2.354,0 2.354,-1.985c0,-1.249 -0.704,-2.017 -1.937,-2.242c-0.032,0 -0.896,-0.143 -2.689,-0.095l0,4.322Zm1.681,-5.555c0.64,0 1.344,-0.095 1.745,-0.465c0.192,-0.175 0.624,-0.656 0.624,-1.439c0,-1.666 -1.761,-1.666 -2.93,-1.666l-1.12,0l0,3.57l1.681,0Zm-3.202,-4.818l3.346,0c0.672,0 1.873,0.016 2.721,0.545c0.929,0.576 1.121,1.584 1.121,2.016c0,1.601 -0.929,2.113 -1.409,2.369c-0.16,0.096 -0.48,0.209 -0.656,0.224c-0.176,0.016 -0.256,0.065 -0.256,0.192c0,0.129 0.095,0.176 0.416,0.273l0.512,0.16c1.104,0.352 2.065,1.456 2.065,2.865c0,1.457 -0.785,2.161 -1.152,2.417c-0.977,0.688 -2.434,0.688 -3.202,0.688l-3.506,0l0,-11.749Z" style="fill:#fff;fill-rule:nonzero;"/><path d="M234.895,45.151l-1.857,-5.986c-0.016,-0.033 -0.032,-0.065 -0.081,-0.065c-0.046,0 -0.063,0.049 -0.079,0.08l-1.745,5.971l3.762,0Zm0.465,1.36l-4.643,0l-0.736,2.45l-1.713,0l3.794,-11.749l1.841,0l3.969,11.749l-1.712,0l-0.8,-2.45Z" style="fill:#fff;fill-rule:nonzero;"/><path d="M246.429,38.588l0,3.89c0.896,0.015 2.049,0.015 2.657,-0.113c0.641,-0.144 1.649,-0.48 1.649,-1.793c0,-1.377 -0.928,-1.984 -2.69,-1.984l-1.616,0Zm-1.632,-1.377l3.617,0c3.282,0 3.986,1.984 3.986,3.186c0,2.209 -1.456,2.8 -2.513,3.136l3.072,5.427l-1.92,0l-2.785,-5.218l-1.808,0l0,5.218l-1.649,0l0,-11.749Z" style="fill:#fff;fill-rule:nonzero;"/><path d="M279.053,47.584l2.272,0c0.609,0 2.353,0 2.353,-1.985c0,-1.249 -0.703,-2.017 -1.936,-2.242c-0.033,0 -0.896,-0.143 -2.689,-0.095l0,4.322Zm1.68,-5.555c0.64,0 1.345,-0.095 1.746,-0.465c0.191,-0.175 0.623,-0.656 0.623,-1.439c0,-1.666 -1.76,-1.666 -2.929,-1.666l-1.12,0l0,3.57l1.68,0Zm-3.201,-4.818l3.345,0c0.672,0 1.873,0.016 2.721,0.545c0.93,0.576 1.121,1.584 1.121,2.016c0,1.601 -0.928,2.113 -1.408,2.369c-0.16,0.096 -0.481,0.209 -0.656,0.224c-0.176,0.016 -0.256,0.065 -0.256,0.192c0,0.129 0.095,0.176 0.416,0.273l0.511,0.16c1.105,0.352 2.065,1.456 2.065,2.865c0,1.457 -0.784,2.161 -1.152,2.417c-0.977,0.688 -2.433,0.688 -3.202,0.688l-3.505,0l0,-11.749Z" style="fill:#fff;fill-rule:nonzero;"/><path d="M294.493,38.588l0,3.89c0.896,0.015 2.048,0.015 2.656,-0.113c0.641,-0.144 1.651,-0.48 1.651,-1.793c0,-1.377 -0.93,-1.984 -2.69,-1.984l-1.618,0Zm-1.632,-1.377l3.616,0c3.284,0 3.988,1.984 3.988,3.186c0,2.209 -1.457,2.8 -2.514,3.136l3.074,5.427l-1.923,0l-2.784,-5.218l-1.808,0l0,5.218l-1.649,0l0,-11.749Z" style="fill:#fff;fill-rule:nonzero;"/><path d="M313.262,45.151l-1.856,-5.986c-0.017,-0.033 -0.033,-0.065 -0.081,-0.065c-0.047,0 -0.064,0.049 -0.08,0.08l-1.745,5.971l3.762,0Zm0.464,1.36l-4.642,0l-0.736,2.45l-1.713,0l3.794,-11.749l1.841,0l3.97,11.749l-1.713,0l-0.801,-2.45Z" style="fill:#fff;fill-rule:nonzero;"/><path d="M328.414,40.286c-0.544,-1.09 -1.057,-1.89 -2.417,-1.89c-0.721,0 -1.793,0.417 -1.793,1.553c0,1.057 0.897,1.505 1.281,1.681l2.337,1.056c0.4,0.192 1.264,0.672 1.761,1.538c0.144,0.271 0.399,0.719 0.399,1.583c0,1.105 -0.399,2.018 -1.152,2.658c-0.96,0.832 -1.921,0.832 -2.545,0.832c-0.721,0 -1.873,-0.24 -2.689,-0.929c-0.752,-0.623 -1.04,-1.216 -1.313,-1.776l1.409,-0.88c0.336,0.943 1.12,2.113 2.705,2.113c0.993,0 2.065,-0.609 2.065,-1.89c0,-0.544 -0.208,-1.232 -1.441,-1.792l-2.081,-0.945c-0.719,-0.32 -1.568,-0.912 -1.936,-1.568c-0.16,-0.288 -0.353,-0.817 -0.353,-1.633c0,-1.776 1.505,-3.025 3.346,-3.025c1.793,0 3.073,0.896 3.794,2.498l-1.377,0.816Z" style="fill:#fff;fill-rule:nonzero;"/><path d="M342.67,40.286c-0.544,-1.09 -1.057,-1.89 -2.417,-1.89c-0.721,0 -1.793,0.417 -1.793,1.553c0,1.057 0.897,1.505 1.281,1.681l2.337,1.056c0.4,0.192 1.264,0.672 1.761,1.538c0.144,0.271 0.399,0.719 0.399,1.583c0,1.105 -0.399,2.018 -1.152,2.658c-0.96,0.832 -1.921,0.832 -2.545,0.832c-0.721,0 -1.873,-0.24 -2.689,-0.929c-0.752,-0.623 -1.04,-1.216 -1.313,-1.776l1.409,-0.88c0.336,0.943 1.12,2.113 2.705,2.113c0.993,0 2.065,-0.609 2.065,-1.89c0,-0.544 -0.208,-1.232 -1.441,-1.792l-2.081,-0.945c-0.719,-0.32 -1.568,-0.912 -1.936,-1.568c-0.16,-0.288 -0.353,-0.817 -0.353,-1.633c0,-1.776 1.505,-3.025 3.346,-3.025c1.793,0 3.073,0.896 3.794,2.498l-1.377,0.816Z" style="fill:#fff;fill-rule:nonzero;"/><path d="M351.676,37.211l7.299,0l0,1.441l-5.618,0l0,3.409l4.145,0l0,1.489l-4.113,0l0,3.921l5.89,0l0,1.489l-7.603,0l0,-11.749Z" style="fill:#fff;fill-rule:nonzero;"/><path d="M368.461,38.588l0,3.89c0.896,0.015 2.049,0.015 2.657,-0.113c0.64,-0.144 1.649,-0.48 1.649,-1.793c0,-1.377 -0.929,-1.984 -2.69,-1.984l-1.616,0Zm-1.633,-1.377l3.617,0c3.282,0 3.986,1.984 3.986,3.186c0,2.209 -1.456,2.8 -2.513,3.136l3.073,5.427l-1.921,0l-2.785,-5.218l-1.808,0l0,5.218l-1.649,0l0,-11.749Z" style="fill:#fff;fill-rule:nonzero;"/><path d="M381.324,47.92l0.992,0l0,-9.637l-0.992,0l0,-1.072l3.697,0l0,1.072l-1.04,0l0,9.637l1.04,0l0,1.04l-3.697,0l0,-1.04Z" style="fill:#fff;fill-rule:nonzero;"/><path d="M392.684,37.211l7.299,0l0,1.441l-5.618,0l0,3.409l4.145,0l0,1.489l-4.113,0l0,3.921l5.89,0l0,1.489l-7.603,0l0,-11.749Z" style="fill:#fff;fill-rule:nonzero;"/></g></svg>