<svg version="1.0" xmlns="http://www.w3.org/2000/svg" width="346.667" height="346.667" viewBox="0 0 260 260"><path d="M180.5 24.8c-2.1.3-2.1.6-2 84 0 46-.1 84.4-.3 85.3-.3 1.4-5.2 1.6-48 1.6-26.2 0-47.9-.3-48.2-.8-.3-.4-.5-14.5-.4-31.3 0-24-.2-30.6-1.2-30.6-.7 0-11.1 1.8-23.1 4.1-12 2.2-22.2 4.2-22.8 4.2-1.8.3-2 2.5-1.9 23.4.2 28.4.5 35 2 40.5.7 2.7 1.1 4.8.8 4.8-.7 0 3.6 9.3 5.7 12.2 3.7 5.2 12.6 9.5 23.4 11.3 2.2.4 5.1.9 6.5 1.2 2.6.5 94.9.7 110.4.3 14.2-.5 26.5-3.7 33.3-8.7 6.2-4.5 10.4-14.9 11.9-28.7 1-9.4 1-171.7 0-172.3-.9-.6-42.5-1-46.1-.5z"/></svg>