<svg viewBox="0 0 401 50" xmlns="http://www.w3.org/2000/svg" fill-rule="evenodd" clip-rule="evenodd" stroke-linejoin="round" stroke-miterlimit="1.414"><g fill="#fff" fill-rule="nonzero"><path d="M7.68 30.96c-2.96 0-4.98-.499-6.06-1.5C.54 28.461 0 26.52 0 23.641V17.22l7.2-1.38v9.301h14.22V0h7.2v23.641c0 2.879-.54 4.82-1.62 5.819-1.08 1.001-3.1 1.5-6.06 1.5H7.68zM43.2 30.96L43.199 0H74.88l-.001 5.279h-24.48l.001 6.901h14.279v5.28H50.4l-.001 7.681h24.78v5.819h-31.98zM88.499 30.96V0h31.32v5.4h-24.12v8.161h13.02V19.2h-13.02v11.76h-7.2zM128.758 30.96V0h31.32v5.4h-24.12v8.161h13.02V19.2h-13.02v11.76h-7.2zM169.017 30.96V0h31.68v5.279h-24.48v6.901h14.28v5.28h-14.28v7.681h24.78v5.819h-31.98zM237.597 5.28h-16.2v8.701h16.2c1.119 0 1.899-.121 2.34-.363.599-.361.9-1.067.9-2.114V7.758c0-1.046-.301-1.751-.9-2.115-.441-.242-1.221-.363-2.34-.363m-23.28 25.681V.001h26.52c4.639 0 6.959 2 6.959 6v7.259c0 4-2.32 6-6.959 6h-4.08l14.279 11.701h-10.32L228.237 19.26h-6.84v11.701h-7.08zM289.256 5.401h-20.341v6.66h19.363c2.967 0 5.001.5 6.104 1.5 1.103 1 1.654 2.94 1.654 5.819v4.261c0 2.879-.551 4.821-1.65 5.82-1.101 1.001-3.131 1.5-6.09 1.5h-19.141c-2.961 0-4.99-.499-6.089-1.5-1.101-.999-1.651-2.941-1.651-5.82V22.8l6.361-1.319v3.66h21.9v-7.08h-19.32c-2.96 0-4.98-.5-6.06-1.5-1.08-1-1.62-2.94-1.62-5.82v-3.42c0-2.881.54-4.82 1.62-5.82s3.1-1.5 6.06-1.5h17.58c2.84 0 4.83.48 5.969 1.439 1.141.961 1.711 2.74 1.711 5.34v.66l-6.36 1.5V5.401zM317.515 25.141h23.76V5.52h-23.76v19.621zm-7.2-17.82c0-2.881.54-4.821 1.619-5.821 1.08-1 3.1-1.5 6.061-1.5h22.801c2.959 0 4.979.5 6.059 1.5 1.079 1 1.62 2.94 1.62 5.821v16.32c0 2.879-.541 4.82-1.62 5.819-1.08 1.001-3.1 1.5-6.059 1.5h-22.801c-2.961 0-4.981-.499-6.061-1.5-1.079-.999-1.619-2.94-1.619-5.819V7.321zM363.595 30.96V0h4.92l21.779 18.24c1.561 1.321 2.74 2.44 3.54 3.36-.2-2.88-.3-4.66-.3-5.34V0h6.481v30.96h-4.92l-22.74-19.14a21.884 21.884 0 01-2.58-2.52c.199 2.001.299 3.64.299 4.92v16.74h-6.479zM215.837 47.584h2.272c.61 0 2.354 0 2.354-1.985 0-1.249-.704-2.017-1.937-2.242-.032 0-.896-.143-2.689-.095v4.322zm1.681-5.555c.64 0 1.344-.095 1.745-.465.192-.175.624-.656.624-1.439 0-1.666-1.761-1.666-2.93-1.666h-1.12v3.57h1.681zm-3.202-4.818h3.346c.672 0 1.873.016 2.721.545.929.576 1.121 1.584 1.121 2.016 0 1.601-.929 2.113-1.409 2.369-.16.096-.48.209-.656.224-.176.016-.256.065-.256.192 0 .129.095.176.416.273l.512.16a3.026 3.026 0 012.065 2.865c0 1.457-.785 2.161-1.152 2.417-.977.688-2.434.688-3.202.688h-3.506V37.211zM234.895 45.151l-1.857-5.986c-.016-.033-.032-.065-.081-.065-.046 0-.063.049-.079.08l-1.745 5.971h3.762zm.465 1.36h-4.643l-.736 2.45h-1.713l3.794-11.749h1.841l3.969 11.749h-1.712l-.8-2.45zM246.429 38.588v3.89c.896.015 2.049.015 2.657-.113.641-.144 1.649-.48 1.649-1.793 0-1.377-.928-1.984-2.69-1.984h-1.616zm-1.632-1.377h3.617c3.282 0 3.986 1.984 3.986 3.186 0 2.209-1.456 2.8-2.513 3.136l3.072 5.427h-1.92l-2.785-5.218h-1.808v5.218h-1.649V37.211zM279.053 47.584h2.272c.609 0 2.353 0 2.353-1.985 0-1.249-.703-2.017-1.936-2.242-.033 0-.896-.143-2.689-.095v4.322zm1.68-5.555c.64 0 1.345-.095 1.746-.465.191-.175.623-.656.623-1.439 0-1.666-1.76-1.666-2.929-1.666h-1.12v3.57h1.68zm-3.201-4.818h3.345c.672 0 1.873.016 2.721.545.93.576 1.121 1.584 1.121 2.016 0 1.601-.928 2.113-1.408 2.369a1.98 1.98 0 01-.656.224c-.176.016-.256.065-.256.192 0 .129.095.176.416.273l.511.16a3.025 3.025 0 012.065 2.865c0 1.457-.784 2.161-1.152 2.417-.977.688-2.433.688-3.202.688h-3.505V37.211zM294.493 38.588v3.89c.896.015 2.048.015 2.656-.113.641-.144 1.651-.48 1.651-1.793 0-1.377-.93-1.984-2.69-1.984h-1.618zm-1.632-1.377h3.616c3.284 0 3.988 1.984 3.988 3.186 0 2.209-1.457 2.8-2.514 3.136l3.074 5.427h-1.923l-2.784-5.218h-1.808v5.218h-1.649V37.211zM313.262 45.151l-1.856-5.986c-.017-.033-.033-.065-.081-.065-.047 0-.064.049-.08.08l-1.745 5.971h3.762zm.464 1.36h-4.642l-.736 2.45h-1.713l3.794-11.749h1.841l3.97 11.749h-1.713l-.801-2.45zM328.414 40.286c-.544-1.09-1.057-1.89-2.417-1.89-.721 0-1.793.417-1.793 1.553 0 1.057.897 1.505 1.281 1.681l2.337 1.056c.4.192 1.264.672 1.761 1.538.144.271.399.719.399 1.583 0 1.105-.399 2.018-1.152 2.658-.96.832-1.921.832-2.545.832-.721 0-1.873-.24-2.689-.929-.752-.623-1.04-1.216-1.313-1.776l1.409-.88c.336.943 1.12 2.113 2.705 2.113.993 0 2.065-.609 2.065-1.89 0-.544-.208-1.232-1.441-1.792l-2.081-.945c-.719-.32-1.568-.912-1.936-1.568-.16-.288-.353-.817-.353-1.633 0-1.776 1.505-3.025 3.346-3.025 1.793 0 3.073.896 3.794 2.498l-1.377.816zM342.67 40.286c-.544-1.09-1.057-1.89-2.417-1.89-.721 0-1.793.417-1.793 1.553 0 1.057.897 1.505 1.281 1.681l2.337 1.056c.4.192 1.264.672 1.761 1.538.144.271.399.719.399 1.583 0 1.105-.399 2.018-1.152 2.658-.96.832-1.921.832-2.545.832-.721 0-1.873-.24-2.689-.929-.752-.623-1.04-1.216-1.313-1.776l1.409-.88c.336.943 1.12 2.113 2.705 2.113.993 0 2.065-.609 2.065-1.89 0-.544-.208-1.232-1.441-1.792l-2.081-.945c-.719-.32-1.568-.912-1.936-1.568-.16-.288-.353-.817-.353-1.633 0-1.776 1.505-3.025 3.346-3.025 1.793 0 3.073.896 3.794 2.498l-1.377.816zM351.676 37.211h7.299v1.441h-5.618v3.409h4.145v1.489h-4.113v3.921h5.89v1.489h-7.603V37.211zM368.461 38.588v3.89c.896.015 2.049.015 2.657-.113.64-.144 1.649-.48 1.649-1.793 0-1.377-.929-1.984-2.69-1.984h-1.616zm-1.633-1.377h3.617c3.282 0 3.986 1.984 3.986 3.186 0 2.209-1.456 2.8-2.513 3.136l3.073 5.427h-1.921l-2.785-5.218h-1.808v5.218h-1.649V37.211zM381.324 47.92h.992v-9.637h-.992v-1.072h3.697v1.072h-1.04v9.637h1.04v1.04h-3.697v-1.04zM392.684 37.211h7.299v1.441h-5.618v3.409h4.145v1.489h-4.113v3.921h5.89v1.489h-7.603V37.211z"/></g></svg>